<svg width="53" height="53" viewBox="0 0 53 53" fill="none" xmlns="http://www.w3.org/2000/svg">
<circle cx="26.5" cy="26.5" r="26.5" fill="#1D38E4"/>
<path d="M31.46 39H20.54C15.8229 39 13 36.1771 13 31.46V20.54C13 15.8229 15.8229 13 20.54 13H31.46C36.1771 13 39 15.8229 39 20.54V31.46C39 36.1771 36.1771 39 31.46 39ZM32.2771 26.7057C31.8314 26.26 31.2371 26.0371 30.6429 26.0371C30.0486 26.0371 29.4543 26.26 29.0086 26.7057L28.34 27.3743V19.0543C28.34 17.7543 27.3 16.7143 26 16.7143C24.7 16.7143 23.66 17.7543 23.66 19.0543V27.3743L22.9914 26.7057C22.1 25.8143 20.6143 25.8143 19.7229 26.7057C18.8314 27.5971 18.8314 29.0829 19.7229 29.9743L24.3657 34.6171C24.5514 34.8029 24.8114 34.9514 25.0714 35.0629C25.1457 35.1 25.22 35.1 25.2943 35.1371C25.48 35.2114 25.6657 35.2486 25.8886 35.2486C25.9629 35.2486 26.0371 35.2486 26.1114 35.2486C26.3714 35.2486 26.5943 35.2114 26.8543 35.1C26.8914 35.1 26.8914 35.1 26.9286 35.1C27.1886 34.9886 27.4114 34.84 27.5971 34.6543C27.6343 34.6171 27.6343 34.6171 27.6714 34.6171L32.3143 29.9743C33.2057 29.0829 33.2057 27.5971 32.2771 26.7057Z" fill="white"/>
</svg>
