<svg width="53" height="53" viewBox="0 0 53 53" fill="none" xmlns="http://www.w3.org/2000/svg">
<circle cx="26.5" cy="26.5" r="26.5" fill="#1D38E4"/>
<path d="M31.46 13H20.54C15.8229 13 13 15.8229 13 20.54V31.46C13 36.1771 15.8229 39 20.54 39H31.46C36.1771 39 39 36.1771 39 31.46V20.54C39 15.8229 36.1771 13 31.46 13ZM32.2771 25.2943C31.8314 25.74 31.2371 25.9629 30.6429 25.9629C30.0486 25.9629 29.4543 25.74 29.0086 25.2943L28.34 24.6257V32.9457C28.34 34.2457 27.3 35.2857 26 35.2857C24.7 35.2857 23.66 34.2457 23.66 32.9457V24.6257L22.9914 25.2943C22.1 26.1857 20.6143 26.1857 19.7229 25.2943C18.8314 24.4029 18.8314 22.9171 19.7229 22.0257L24.3657 17.3829C24.5514 17.1971 24.8114 17.0486 25.0714 16.9371C25.1457 16.9 25.22 16.9 25.2943 16.8629C25.48 16.7886 25.6657 16.7514 25.8886 16.7514C25.9629 16.7514 26.0371 16.7514 26.1114 16.7514C26.3714 16.7514 26.5943 16.7886 26.8543 16.9C26.8914 16.9 26.8914 16.9 26.9286 16.9C27.1886 17.0114 27.4114 17.16 27.5971 17.3457C27.6343 17.3829 27.6343 17.3829 27.6714 17.3829L32.3143 22.0257C33.2057 22.9171 33.2057 24.4029 32.2771 25.2943Z" fill="white"/>
</svg>
