<svg width="120" height="38" viewBox="0 0 120 38" fill="none" xmlns="http://www.w3.org/2000/svg">
<rect width="119.727" height="37.4148" rx="5.98636" fill="#020410"/>
<path fill-rule="evenodd" clip-rule="evenodd" d="M54.5061 8.42851C54.3965 8.53519 54.2643 8.58853 54.1096 8.58853C53.9483 8.58853 53.8145 8.53519 53.7082 8.42851C53.6018 8.32183 53.5486 8.18766 53.5486 8.02602C53.5486 7.87085 53.6018 7.74154 53.7082 7.63809C53.8145 7.53464 53.9483 7.48291 54.1096 7.48291C54.2643 7.48291 54.3965 7.53464 54.5061 7.63809C54.6157 7.74154 54.6706 7.87085 54.6706 8.02602C54.6706 8.18766 54.6157 8.32183 54.5061 8.42851ZM38.4682 14.5822C39.055 14.5822 39.5258 14.4755 39.8804 14.2622C40.2351 14.0488 40.5349 13.7449 40.7799 13.3505L40.8476 14.4658H41.5924V10.8386H38.8068V11.4787H40.7606C40.709 12.2158 40.4994 12.7961 40.1319 13.2196C39.7643 13.6431 39.2195 13.8548 38.4973 13.8548C38.0265 13.8548 37.6139 13.7433 37.2592 13.5203C36.9045 13.2972 36.6273 12.9788 36.4274 12.565C36.2275 12.1512 36.1275 11.6565 36.1275 11.0811C36.1275 10.5056 36.2291 10.011 36.4322 9.59723C36.6353 9.18343 36.9207 8.86499 37.2882 8.64193C37.6558 8.41887 38.0878 8.30733 38.5843 8.30733C39.1131 8.30733 39.5467 8.42695 39.8852 8.66618C40.2238 8.9054 40.4382 9.22869 40.5285 9.63602H41.4667C41.3184 8.98946 40.9911 8.48191 40.4849 8.11336C39.9787 7.74482 39.3452 7.56055 38.5843 7.56055C37.9137 7.56055 37.3317 7.70926 36.8384 8.00668C36.3452 8.3041 35.9647 8.7179 35.6971 9.24808C35.4295 9.77827 35.2957 10.3893 35.2957 11.0811C35.2957 11.7729 35.4279 12.3823 35.6923 12.9092C35.9566 13.4362 36.3274 13.8468 36.8046 14.141C37.2818 14.4351 37.8363 14.5822 38.4682 14.5822ZM44.7725 14.5821C45.34 14.5821 45.8059 14.435 46.1702 14.1408C46.5345 13.8466 46.7811 13.4765 46.9101 13.0303H46.1073C46.0041 13.2954 45.8397 13.5056 45.614 13.6607C45.3883 13.8159 45.1078 13.8935 44.7725 13.8935C44.5146 13.8935 44.2712 13.8321 44.0423 13.7092C43.8133 13.5864 43.6231 13.4037 43.4716 13.1613C43.32 12.9188 43.2346 12.6133 43.2153 12.2448H47.0359C47.0359 12.1542 47.0375 12.0734 47.0407 12.0023C47.0439 11.9312 47.0455 11.8601 47.0455 11.7889C47.0455 11.3945 46.9553 11.026 46.7747 10.6833C46.5941 10.3406 46.3346 10.0642 45.9961 9.85409C45.6575 9.64396 45.2561 9.5389 44.7919 9.5389C44.3211 9.5389 43.9068 9.64396 43.549 9.85409C43.1911 10.0642 42.9122 10.3584 42.7123 10.7367C42.5124 11.1149 42.4125 11.5562 42.4125 12.0605C42.4125 12.5713 42.514 13.0142 42.7171 13.3892C42.9203 13.7642 43.1991 14.0568 43.5538 14.2669C43.9085 14.477 44.3147 14.5821 44.7725 14.5821ZM43.2249 11.6145H46.2427C46.2233 11.1813 46.075 10.8419 45.7977 10.5962C45.5205 10.3505 45.1787 10.2276 44.7725 10.2276C44.3856 10.2276 44.0422 10.3456 43.7423 10.5816C43.4425 10.8176 43.27 11.1619 43.2249 11.6145ZM50.3707 14.4658V13.7675H49.8677C49.5582 13.7675 49.3422 13.7141 49.2196 13.6075C49.0971 13.5008 49.0359 13.2955 49.0359 12.9916V10.3439H50.448V9.65534H49.0359V8.50122H48.3298L48.2234 9.65534H47.3916V10.3439H48.2234V12.9916C48.2234 13.5476 48.3491 13.9324 48.6006 14.1457C48.8521 14.3591 49.1971 14.4658 49.6356 14.4658H50.3707ZM54.5158 14.4659V9.65545H53.7033V14.4659H54.5158ZM58.3439 13.7675V14.4658H57.6088C57.1704 14.4658 56.8254 14.3591 56.5739 14.1457C56.3224 13.9324 56.1967 13.5476 56.1967 12.9916V10.3439H55.3649V9.65534H56.1967L56.3031 8.50122H57.0092V9.65534H58.4213V10.3439H57.0092V12.9916C57.0092 13.2955 57.0704 13.5008 57.1929 13.6075C57.3155 13.7141 57.5315 13.7675 57.841 13.7675H58.3439ZM63.7755 14.5821C64.2269 14.5821 64.6347 14.4786 64.9991 14.2717C65.3634 14.0648 65.652 13.7723 65.8647 13.394C66.0775 13.0158 66.1839 12.5713 66.1839 12.0605C66.1839 11.5497 66.0791 11.1052 65.8696 10.727C65.66 10.3487 65.3747 10.0561 65.0136 9.84925C64.6525 9.64235 64.2462 9.5389 63.7949 9.5389C63.3435 9.5389 62.9356 9.64235 62.5713 9.84925C62.207 10.0561 61.9184 10.3487 61.7056 10.727C61.4928 11.1052 61.3864 11.5497 61.3864 12.0605C61.3864 12.5713 61.4912 13.0158 61.7008 13.394C61.9104 13.7723 62.1957 14.0648 62.5568 14.2717C62.9179 14.4786 63.3241 14.5821 63.7755 14.5821ZM63.0162 13.6803C63.2515 13.816 63.5046 13.8839 63.7755 13.8839C64.0527 13.8839 64.3107 13.816 64.5493 13.6803C64.7878 13.5445 64.9813 13.3408 65.1296 13.0693C65.2779 12.7977 65.3521 12.4615 65.3521 12.0606C65.3521 11.6598 65.2795 11.3235 65.1344 11.052C64.9894 10.7804 64.7975 10.5768 64.5589 10.441C64.3203 10.3052 64.0656 10.2373 63.7948 10.2373C63.5175 10.2373 63.2596 10.3052 63.021 10.441C62.7824 10.5768 62.589 10.7804 62.4407 11.052C62.2924 11.3235 62.2182 11.6598 62.2182 12.0606C62.2182 12.4615 62.2924 12.7977 62.4407 13.0693C62.589 13.3408 62.7808 13.5445 63.0162 13.6803ZM67.9131 14.4657V11.9732C67.9131 11.4172 68.0501 10.9888 68.3242 10.6882C68.5982 10.3875 68.9416 10.2372 69.3543 10.2372C70.1797 10.2372 70.5924 10.7383 70.5924 11.7404V14.4657H71.4048V11.6532C71.4048 10.9355 71.2356 10.4037 70.897 10.0578C70.5585 9.71185 70.1055 9.5389 69.5381 9.5389C69.1705 9.5389 68.8417 9.62618 68.5515 9.80075C68.2613 9.97533 68.0388 10.2146 67.8841 10.5184L67.8357 9.65528H67.1006V14.4657H67.9131ZM65.553 29.5387C66.2192 29.5387 66.7799 29.4182 67.2352 29.1772C67.6906 28.9362 68.0321 28.6234 68.2598 28.2387C68.4874 27.854 68.6013 27.4376 68.6013 26.9895C68.6013 26.4822 68.498 26.0636 68.2914 25.7339C68.0848 25.4041 67.8086 25.1378 67.4629 24.9349C67.1172 24.732 66.7251 24.5586 66.2866 24.4149C65.8313 24.2543 65.4265 24.1126 65.0724 23.99C64.7182 23.8674 64.4399 23.7131 64.2376 23.5271C64.0352 23.3411 63.934 23.0748 63.934 22.7281C63.934 22.3392 64.071 22.0348 64.3451 21.815C64.6191 21.5951 64.967 21.4895 65.3886 21.4979C65.7174 21.4979 65.9957 21.5655 66.2234 21.7008C66.451 21.8361 66.6239 22.0073 66.742 22.2145C66.86 22.4216 66.919 22.6393 66.919 22.8676H68.3357C68.3272 22.3688 68.2008 21.9312 67.9562 21.555C67.7117 21.1787 67.3723 20.8849 66.938 20.6735C66.5037 20.4622 65.9999 20.3565 65.4265 20.3565C64.8447 20.3565 64.3366 20.4601 63.9024 20.6672C63.4681 20.8743 63.1308 21.1639 62.8905 21.536C62.6502 21.908 62.5342 22.3434 62.5427 22.8423C62.5427 23.4341 62.7134 23.9118 63.0549 24.2754C63.3964 24.639 63.9087 24.9349 64.5917 25.1632C64.9374 25.2815 65.2663 25.3915 65.5783 25.4929C65.8903 25.5944 66.1665 25.7085 66.4068 25.8354C66.6471 25.9622 66.8368 26.1228 66.976 26.3173C67.1151 26.5118 67.1847 26.7654 67.1847 27.0782C67.1847 27.4672 67.0392 27.7864 66.7483 28.0358C66.4574 28.2852 66.0547 28.4099 65.5404 28.4099C64.9585 28.4099 64.5074 28.245 64.187 27.9153C63.8665 27.5856 63.7021 27.1839 63.6937 26.7105H62.277C62.2855 27.2939 62.4267 27.7969 62.7008 28.2197C62.9748 28.6424 63.3564 28.968 63.8455 29.1962C64.3345 29.4245 64.9037 29.5387 65.553 29.5387ZM37.3455 27.2177L36.5866 29.3865H35.1699L38.4332 20.5087H39.9005L43.1385 29.3865H41.7218L40.9629 27.2177H37.3455ZM39.1542 22.1066L37.7249 26.1524H40.5835L39.1542 22.1066ZM45.3871 32.1766V28.4226C45.6063 28.7777 45.9036 29.0525 46.2788 29.247C46.654 29.4414 47.0862 29.5387 47.5753 29.5387C48.1908 29.5387 48.7305 29.397 49.1943 29.1138C49.6581 28.8306 50.0228 28.4416 50.2884 27.947C50.554 27.4524 50.6868 26.888 50.6868 26.2539C50.6868 25.6197 50.554 25.0533 50.2884 24.5544C50.0228 24.0556 49.6581 23.6624 49.1943 23.3749C48.7305 23.0875 48.195 22.9437 47.5879 22.9437C47.0314 22.9437 46.576 23.0579 46.2219 23.2862C45.8677 23.5144 45.5895 23.7765 45.3871 24.0725L45.2479 23.0959H44.0463V32.1766H45.3871ZM45.9373 27.7822C46.3041 28.1753 46.7742 28.3719 47.3476 28.3719C47.921 28.3719 48.3932 28.1753 48.7642 27.7822C49.1353 27.389 49.3208 26.8754 49.3208 26.2412C49.3208 25.8269 49.2365 25.4591 49.0678 25.1378C48.8992 24.8166 48.6673 24.565 48.3721 24.3832C48.077 24.2015 47.7355 24.1106 47.3476 24.1106C46.7742 24.1106 46.3041 24.3093 45.9373 24.7066C45.5705 25.104 45.3871 25.6156 45.3871 26.2412C45.3871 26.8754 45.5705 27.389 45.9373 27.7822ZM53.2011 32.1766V28.4226C53.4203 28.7777 53.7175 29.0525 54.0928 29.247C54.468 29.4414 54.9002 29.5387 55.3893 29.5387C56.0048 29.5387 56.5445 29.397 57.0083 29.1138C57.472 28.8306 57.8367 28.4416 58.1024 27.947C58.368 27.4524 58.5008 26.888 58.5008 26.2539C58.5008 25.6197 58.368 25.0533 58.1024 24.5544C57.8367 24.0556 57.472 23.6624 57.0083 23.3749C56.5445 23.0875 56.009 22.9437 55.4019 22.9437C54.8454 22.9437 54.39 23.0579 54.0359 23.2862C53.6817 23.5144 53.4034 23.7765 53.2011 24.0725L53.0619 23.0959H51.8603V32.1766H53.2011ZM53.7513 27.7822C54.1181 28.1753 54.5882 28.3719 55.1616 28.3719C55.735 28.3719 56.2072 28.1753 56.5782 27.7822C56.9493 27.389 57.1348 26.8754 57.1348 26.2412C57.1348 25.8269 57.0504 25.4591 56.8818 25.1378C56.7131 24.8166 56.4813 24.565 56.1861 24.3832C55.891 24.2015 55.5495 24.1106 55.1616 24.1106C54.5882 24.1106 54.1181 24.3093 53.7513 24.7066C53.3845 25.104 53.2011 25.6156 53.2011 26.2412C53.2011 26.8754 53.3845 27.389 53.7513 27.7822ZM73.4049 28.2451V29.3865H72.3678C71.7522 29.3865 71.2631 29.2364 70.9005 28.9363C70.5379 28.6361 70.3567 28.1013 70.3567 27.3319V24.2247H69.2815V23.0959H70.3567L70.5211 21.4979H71.6974V23.0959H73.4682V24.2247H71.6974V27.3319C71.6974 27.6786 71.7712 27.9174 71.9187 28.0485C72.0663 28.1795 72.3214 28.2451 72.684 28.2451H73.4049ZM77.3358 29.5387C77.9345 29.5387 78.4742 29.4013 78.9548 29.1265C79.4355 28.8517 79.817 28.467 80.0995 27.9724C80.382 27.4777 80.5232 26.9007 80.5232 26.2412C80.5232 25.5817 80.382 25.0046 80.0995 24.51C79.817 24.0154 79.4376 23.6307 78.9611 23.3559C78.4847 23.0811 77.9471 22.9437 77.3484 22.9437C76.7582 22.9437 76.2227 23.0811 75.7421 23.3559C75.2614 23.6307 74.8799 24.0154 74.5974 24.51C74.3149 25.0046 74.1737 25.5817 74.1737 26.2412C74.1737 26.9007 74.3128 27.4777 74.5911 27.9724C74.8693 28.467 75.2467 28.8517 75.7231 29.1265C76.1995 29.4013 76.7371 29.5387 77.3358 29.5387ZM76.4504 28.1435C76.7202 28.3042 77.0153 28.3845 77.3358 28.3845C77.6562 28.3845 77.9534 28.3042 78.2275 28.1435C78.5015 27.9829 78.7229 27.744 78.8915 27.427C79.0602 27.1099 79.1445 26.7146 79.1445 26.2411C79.1445 25.7676 79.0623 25.3724 78.8979 25.0553C78.7334 24.7382 78.5142 24.4994 78.2401 24.3387C77.9661 24.1781 77.6688 24.0978 77.3484 24.0978C77.028 24.0978 76.7308 24.1781 76.4567 24.3387C76.1827 24.4994 75.9613 24.7382 75.7927 25.0553C75.624 25.3724 75.5397 25.7676 75.5397 26.2411C75.5397 26.7146 75.624 27.1099 75.7927 27.427C75.9613 27.744 76.1805 27.9829 76.4504 28.1435ZM83.0375 29.3865V26.368C83.0375 25.8523 83.1239 25.4485 83.2968 25.1568C83.4696 24.8651 83.7015 24.658 83.9924 24.5354C84.2833 24.4128 84.6143 24.3515 84.9853 24.3515H85.3521V22.9437C84.7956 22.9437 84.3213 23.0642 83.9292 23.3052C83.5371 23.5461 83.2314 23.8738 83.0122 24.2881L82.8983 23.0959H81.6967V29.3865H83.0375ZM90.8451 28.9426C90.3434 29.34 89.7215 29.5387 88.9795 29.5387C88.3639 29.5387 87.8179 29.4013 87.3415 29.1265C86.8651 28.8517 86.4919 28.4691 86.2221 27.9787C85.9523 27.4883 85.8173 26.9176 85.8173 26.2666C85.8173 25.6071 85.9501 25.0279 86.2158 24.529C86.4814 24.0302 86.8524 23.6413 87.3288 23.3622C87.8053 23.0832 88.3597 22.9437 88.9921 22.9437C89.6077 22.9437 90.1431 23.0811 90.5985 23.3559C91.0538 23.6307 91.408 23.9964 91.6609 24.453C91.9139 24.9095 92.0404 25.4126 92.0404 25.9622C92.0404 26.0467 92.0383 26.1376 92.0341 26.2349C92.0299 26.3321 92.0235 26.4399 92.0151 26.5583H87.1328C87.1749 27.167 87.3752 27.6299 87.7336 27.947C88.092 28.2641 88.5072 28.4226 88.9795 28.4226C89.3589 28.4226 89.6772 28.3359 89.9344 28.1626C90.1916 27.9893 90.3834 27.7547 90.5099 27.4587H91.8507C91.682 28.0506 91.3468 28.5452 90.8451 28.9426ZM90.6996 25.6452H87.158C87.2339 25.1125 87.4447 24.713 87.7905 24.4467C88.1362 24.1803 88.5325 24.0472 88.9794 24.0472C89.4601 24.0472 89.8606 24.1909 90.181 24.4784C90.5015 24.7658 90.6743 25.1548 90.6996 25.6452Z" fill="white"/>
<g clip-path="url(#clip0_547_1265)">
<path fill-rule="evenodd" clip-rule="evenodd" d="M22.4328 9.72778C22.5292 10.6861 22.182 11.6305 21.6746 12.3247C21.145 13.0081 20.298 13.5307 19.4729 13.4634C19.3649 12.5413 19.783 11.5607 20.2509 10.9624C20.7799 10.2835 21.6984 9.76335 22.4328 9.72778ZM25.7607 15.7954C25.6573 15.8542 23.9524 16.8243 23.971 18.8026C23.9925 21.1918 26.1638 21.9817 26.1904 21.9903C26.1774 22.046 25.8504 23.1302 25.0359 24.2311C24.3558 25.2004 23.6433 26.1479 22.5116 26.1652C21.9736 26.177 21.6102 26.0295 21.2317 25.8759C20.8368 25.7156 20.4253 25.5486 19.7815 25.5486C19.099 25.5486 18.6693 25.721 18.2548 25.8872C17.8964 26.0309 17.5495 26.1701 17.0606 26.1893C15.9827 26.2271 15.1592 25.1546 14.4544 24.1941C13.0456 22.2328 11.9489 18.6671 13.4194 16.2407C14.1319 15.0507 15.4311 14.2844 16.8198 14.264C17.4313 14.2521 18.0178 14.4767 18.532 14.6736C18.9252 14.8242 19.2761 14.9586 19.5635 14.9586C19.8159 14.9586 20.1569 14.8296 20.5544 14.6792C21.1808 14.4423 21.9474 14.1523 22.7283 14.2306C23.2624 14.2454 24.7822 14.4316 25.7628 15.7942L25.7607 15.7954Z" fill="white"/>
</g>
<defs>
<clipPath id="clip0_547_1265">
<rect width="17.9591" height="17.9591" fill="white" transform="translate(10.4761 9.72778)"/>
</clipPath>
</defs>
</svg>
