<svg width="48" height="47" viewBox="0 0 48 47" fill="none" xmlns="http://www.w3.org/2000/svg">
<mask id="mask0_902_23140" style="mask-type:alpha" maskUnits="userSpaceOnUse" x="0" y="0" width="48" height="47">
<rect x="0.795105" y="0.0703125" width="46.789" height="46.789" rx="11.492" fill="white"/>
</mask>
<g mask="url(#mask0_902_23140)">
<g opacity="0.1">
<rect x="0.795105" y="0.0703125" width="46.789" height="46.789" fill="#1A6882"/>
</g>
</g>
<g clip-path="url(#clip0_902_23140)">
<path fill-rule="evenodd" clip-rule="evenodd" d="M26.1391 35.161V31.2619C26.1391 30.5441 25.5572 29.9622 24.8394 29.9622H23.5397C22.8219 29.9622 22.2401 30.5441 22.2401 31.2619V35.161H15.0917V13.0662C15.0917 11.6306 16.2555 10.4668 17.6911 10.4668H30.6881C32.1237 10.4668 33.2875 11.6306 33.2875 13.0662V35.161H26.1391ZM20.2905 13.0662C19.5727 13.0662 18.9908 13.6481 18.9908 14.3659V15.6656C18.9908 16.3834 19.5727 16.9653 20.2905 16.9653H21.5902C22.308 16.9653 22.8899 16.3834 22.8899 15.6656V14.3659C22.8899 13.6481 22.308 13.0662 21.5902 13.0662H20.2905ZM26.789 13.0662C26.0712 13.0662 25.4893 13.6481 25.4893 14.3659V15.6656C25.4893 16.3834 26.0712 16.9653 26.789 16.9653H28.0887C28.8065 16.9653 29.3884 16.3834 29.3884 15.6656V14.3659C29.3884 13.6481 28.8065 13.0662 28.0887 13.0662H26.789ZM20.2905 18.265C19.5727 18.265 18.9908 18.8469 18.9908 19.5647V20.8644C18.9908 21.5822 19.5727 22.164 20.2905 22.164H21.5902C22.308 22.164 22.8899 21.5822 22.8899 20.8644V19.5647C22.8899 18.8469 22.308 18.265 21.5902 18.265H20.2905ZM20.2905 23.4637C19.5727 23.4637 18.9908 24.0456 18.9908 24.7634V26.0631C18.9908 26.7809 19.5727 27.3628 20.2905 27.3628H21.5902C22.308 27.3628 22.8899 26.7809 22.8899 26.0631V24.7634C22.8899 24.0456 22.308 23.4637 21.5902 23.4637H20.2905ZM26.789 23.4637C26.0712 23.4637 25.4893 24.0456 25.4893 24.7634V26.0631C25.4893 26.7809 26.0712 27.3628 26.789 27.3628H28.0887C28.8065 27.3628 29.3884 26.7809 29.3884 26.0631V24.7634C29.3884 24.0456 28.8065 23.4637 28.0887 23.4637H26.789Z" fill="#1D38E4"/>
<path d="M28.0887 18.2656H26.789C26.0712 18.2656 25.4893 18.8475 25.4893 19.5653V20.865C25.4893 21.5828 26.0712 22.1647 26.789 22.1647H28.0887C28.8065 22.1647 29.3884 21.5828 29.3884 20.865V19.5653C29.3884 18.8475 28.8065 18.2656 28.0887 18.2656Z" fill="white"/>
<path opacity="0.3" fill-rule="evenodd" clip-rule="evenodd" d="M13.792 35.1602H34.5871C35.3049 35.1602 35.8868 35.742 35.8868 36.4599V36.9797C35.8868 37.4104 35.5377 37.7595 35.107 37.7595H13.2722C12.8415 37.7595 12.4923 37.4104 12.4923 36.9797V36.4599C12.4923 35.742 13.0742 35.1602 13.792 35.1602Z" fill="#1A6882"/>
</g>
<defs>
<clipPath id="clip0_902_23140">
<rect width="31.1927" height="31.1927" fill="white" transform="translate(8.59326 7.86914)"/>
</clipPath>
</defs>
</svg>
