<svg width="29" height="21" viewBox="0 0 29 21" fill="none" xmlns="http://www.w3.org/2000/svg">
<path d="M22.7332 0L17.1332 5.60004H21.3332V15.4C21.3332 16.947 20.0803 18.2 18.5332 18.2C16.9862 18.2 15.7332 16.9471 15.7332 15.4V5.60004C15.7332 2.51304 13.2202 6.55889e-05 10.1332 6.55889e-05C7.04622 6.55889e-05 4.53325 2.51304 4.53325 5.60004V15.4H0.333252L5.93323 21L11.5333 15.4H7.33327V5.60004C7.33327 4.05306 8.58624 2.80002 10.1333 2.80002C11.6803 2.80002 12.9332 4.053 12.9332 5.60004V15.4C12.9332 18.487 15.4462 21 18.5332 21C21.6202 21 24.1332 18.487 24.1332 15.4V5.60004H28.3332L22.7332 0Z" fill="#FACC15"/>
</svg>
