<svg width="120" height="38" viewBox="0 0 120 38" fill="none" xmlns="http://www.w3.org/2000/svg">
<rect x="0.272766" width="119.727" height="37.4148" rx="5.98636" fill="#020410"/>
<path fill-rule="evenodd" clip-rule="evenodd" d="M54.4721 8.16184C54.3619 8.26885 54.2289 8.32235 54.0733 8.32235C53.9112 8.32235 53.7766 8.26885 53.6696 8.16184C53.5626 8.05484 53.5091 7.92027 53.5091 7.75814C53.5091 7.60249 53.5626 7.47279 53.6696 7.36902C53.7766 7.26526 53.9112 7.21338 54.0733 7.21338C54.2289 7.21338 54.3619 7.26526 54.4721 7.36902C54.5824 7.47279 54.6375 7.60249 54.6375 7.75814C54.6375 7.92027 54.5824 8.05484 54.4721 8.16184ZM38.3423 14.3342C38.9324 14.3342 39.4059 14.2272 39.7625 14.0131C40.1192 13.7991 40.4208 13.4943 40.6672 13.0987L40.7353 14.2174H41.4844V10.5792H38.6828V11.2213H40.6478C40.5959 11.9606 40.3851 12.5426 40.0155 12.9674C39.6458 13.3922 39.0978 13.6046 38.3715 13.6046C37.898 13.6046 37.483 13.4927 37.1263 13.269C36.7696 13.0452 36.4907 12.7258 36.2897 12.3108C36.0887 11.8957 35.9881 11.3996 35.9881 10.8224C35.9881 10.2452 36.0903 9.74911 36.2946 9.33405C36.4989 8.919 36.7858 8.5996 37.1555 8.37586C37.5251 8.15212 37.9597 8.04025 38.459 8.04025C38.9908 8.04025 39.4269 8.16022 39.7674 8.40018C40.1079 8.64013 40.3235 8.96439 40.4143 9.37296H41.3579C41.2088 8.72444 40.8796 8.21535 40.3705 7.84569C39.8614 7.47603 39.2243 7.2912 38.459 7.2912C37.7846 7.2912 37.1993 7.44036 36.7031 7.73869C36.207 8.03701 35.8244 8.45206 35.5553 8.98385C35.2861 9.51564 35.1516 10.1285 35.1516 10.8224C35.1516 11.5163 35.2845 12.1276 35.5504 12.6561C35.8163 13.1847 36.1892 13.5965 36.6691 13.8915C37.149 14.1866 37.7067 14.3342 38.3423 14.3342ZM44.6827 14.3342C45.2534 14.3342 45.7219 14.1867 46.0884 13.8916C46.4548 13.5965 46.7028 13.2253 46.8325 12.7778H46.0251C45.9214 13.0437 45.756 13.2544 45.529 13.4101C45.302 13.5657 45.0199 13.6436 44.6827 13.6436C44.4233 13.6436 44.1785 13.5819 43.9482 13.4587C43.718 13.3355 43.5267 13.1523 43.3743 12.9091C43.2219 12.6659 43.136 12.3595 43.1165 11.9898H46.959C46.959 11.899 46.9606 11.818 46.9639 11.7466C46.9671 11.6753 46.9687 11.604 46.9687 11.5326C46.9687 11.137 46.8779 10.7674 46.6963 10.4236C46.5148 10.0799 46.2537 9.80268 45.9133 9.59191C45.5728 9.38114 45.1691 9.27576 44.7021 9.27576C44.2287 9.27576 43.812 9.38114 43.4521 9.59191C43.0922 9.80268 42.8117 10.0978 42.6107 10.4771C42.4096 10.8565 42.3091 11.2991 42.3091 11.805C42.3091 12.3173 42.4112 12.7616 42.6155 13.1377C42.8198 13.5139 43.1003 13.8073 43.457 14.0181C43.8137 14.2288 44.2222 14.3342 44.6827 14.3342ZM43.1262 11.3574H46.1613C46.1418 10.9229 45.9927 10.5824 45.7138 10.336C45.435 10.0895 45.0912 9.96632 44.6827 9.96632C44.2936 9.96632 43.9482 10.0847 43.6467 10.3214C43.3451 10.5581 43.1716 10.9034 43.1262 11.3574ZM50.3129 14.2174V13.517H49.8071C49.4958 13.517 49.2785 13.4635 49.1553 13.3565C49.0321 13.2495 48.9705 13.0436 48.9705 12.7388V10.0831H50.3907V9.39241H48.9705V8.23479H48.2603L48.1533 9.39241H47.3167V10.0831H48.1533V12.7388C48.1533 13.2965 48.2798 13.6824 48.5327 13.8964C48.7856 14.1104 49.1326 14.2174 49.5736 14.2174H50.3129ZM54.4818 14.2175V9.3925H53.6647V14.2175H54.4818ZM58.3319 13.517V14.2174H57.5926C57.1516 14.2174 56.8047 14.1104 56.5517 13.8964C56.2988 13.6824 56.1723 13.2965 56.1723 12.7388V10.0831H55.3357V9.39241H56.1723L56.2793 8.23479H56.9895V9.39241H58.4097V10.0831H56.9895V12.7388C56.9895 13.0436 57.0511 13.2495 57.1743 13.3565C57.2975 13.4635 57.5148 13.517 57.8261 13.517H58.3319ZM63.7946 14.3342C64.2486 14.3342 64.6588 14.2305 65.0252 14.0229C65.3916 13.8154 65.6818 13.522 65.8958 13.1426C66.1099 12.7632 66.2169 12.3173 66.2169 11.805C66.2169 11.2927 66.1115 10.8468 65.9007 10.4674C65.6899 10.088 65.403 9.79458 65.0398 9.58705C64.6766 9.37952 64.2681 9.27576 63.8141 9.27576C63.3601 9.27576 62.9499 9.37952 62.5835 9.58705C62.2171 9.79458 61.9269 10.088 61.7129 10.4674C61.4989 10.8468 61.3919 11.2927 61.3919 11.805C61.3919 12.3173 61.4972 12.7632 61.708 13.1426C61.9188 13.522 62.2057 13.8154 62.5689 14.0229C62.9321 14.2305 63.3407 14.3342 63.7946 14.3342ZM63.031 13.4294C63.2677 13.5656 63.5222 13.6337 63.7946 13.6337C64.0735 13.6337 64.3329 13.5656 64.5728 13.4294C64.8128 13.2932 65.0074 13.0889 65.1565 12.8165C65.3057 12.5442 65.3803 12.2069 65.3803 11.8048C65.3803 11.4028 65.3073 11.0655 65.1614 10.7931C65.0155 10.5208 64.8225 10.3165 64.5826 10.1803C64.3426 10.0441 64.0865 9.97601 63.8141 9.97601C63.5352 9.97601 63.2758 10.0441 63.0358 10.1803C62.7959 10.3165 62.6013 10.5208 62.4522 10.7931C62.303 11.0655 62.2284 11.4028 62.2284 11.8048C62.2284 12.2069 62.303 12.5442 62.4522 12.8165C62.6013 13.0889 62.7943 13.2932 63.031 13.4294ZM67.956 14.2175V11.7174C67.956 11.1597 68.0938 10.7301 68.3694 10.4285C68.645 10.1269 68.9904 9.97616 69.4054 9.97616C70.2355 9.97616 70.6506 10.4788 70.6506 11.484V14.2175H71.4677V11.3964C71.4677 10.6766 71.2975 10.1432 70.957 9.7962C70.6166 9.44924 70.161 9.27576 69.5903 9.27576C69.2206 9.27576 68.8899 9.36331 68.598 9.53841C68.3062 9.71351 68.0825 9.95346 67.9268 10.2583L67.8782 9.39249H67.1388V14.2175H67.956ZM67.5415 29.1835V20.0244H66.193V29.1835H67.5415ZM41.2203 28.9545C40.7708 29.209 40.1856 29.3362 39.4648 29.3362C38.6252 29.3362 37.8916 29.1454 37.264 28.7637C36.6365 28.3821 36.1488 27.8478 35.8011 27.1609C35.4534 26.4739 35.2796 25.6725 35.2796 24.7566C35.2796 23.8492 35.4576 23.0477 35.8138 22.3523C36.17 21.6569 36.6767 21.112 37.334 20.7177C37.9913 20.3233 38.7694 20.1261 39.6683 20.1261C40.686 20.1261 41.5341 20.3721 42.2125 20.864C42.891 21.3558 43.332 22.0343 43.5355 22.8993H42.009C41.8733 22.4244 41.6061 22.0513 41.2075 21.7799C40.809 21.5085 40.2959 21.3728 39.6683 21.3728C38.7354 21.3728 38.0019 21.6739 37.4676 22.276C36.9333 22.8781 36.6661 23.7092 36.6661 24.7693C36.6661 25.8294 36.929 26.6563 37.4548 27.2499C37.9806 27.8436 38.6803 28.1404 39.5538 28.1404C40.4358 28.1404 41.0994 27.8902 41.5447 27.3899C41.9899 26.8895 42.2507 26.2238 42.327 25.3927H39.91V24.3495H43.6881V29.1835H42.4542L42.3397 27.8733C42.0429 28.3397 41.6697 28.7001 41.2203 28.9545ZM49.5752 28.9227C49.0918 29.1984 48.549 29.3362 47.9469 29.3362C47.3447 29.3362 46.8041 29.1984 46.3249 28.9227C45.8458 28.6471 45.4663 28.2613 45.1864 27.7651C44.9065 27.269 44.7666 26.6902 44.7666 26.0287C44.7666 25.3672 44.9087 24.7884 45.1928 24.2923C45.4769 23.7962 45.8606 23.4103 46.344 23.1347C46.8274 22.8591 47.3659 22.7213 47.9596 22.7213C48.5617 22.7213 49.1024 22.8591 49.5815 23.1347C50.0607 23.4103 50.4423 23.7962 50.7264 24.2923C51.0105 24.7884 51.1526 25.3672 51.1526 26.0287C51.1526 26.6902 51.0105 27.269 50.7264 27.7651C50.4423 28.2613 50.0586 28.6471 49.5752 28.9227ZM47.9469 28.1785C47.6246 28.1785 47.3278 28.0979 47.0564 27.9368C46.785 27.7756 46.5645 27.5361 46.3949 27.218C46.2253 26.9 46.1405 26.5035 46.1405 26.0286C46.1405 25.5537 46.2253 25.1572 46.3949 24.8392C46.5645 24.5212 46.7871 24.2816 47.0628 24.1205C47.3384 23.9593 47.6373 23.8788 47.9596 23.8788C48.2818 23.8788 48.5808 23.9593 48.8564 24.1205C49.132 24.2816 49.3525 24.5212 49.5179 24.8392C49.6833 25.1572 49.766 25.5537 49.766 26.0286C49.766 26.5035 49.6812 26.9 49.5115 27.218C49.3419 27.5361 49.1193 27.7756 48.8437 27.9368C48.5681 28.0979 48.2691 28.1785 47.9469 28.1785ZM56.9124 28.9227C56.429 29.1984 55.8862 29.3362 55.2841 29.3362C54.6819 29.3362 54.1413 29.1984 53.6621 28.9227C53.183 28.6471 52.8035 28.2613 52.5236 27.7651C52.2438 27.269 52.1038 26.6902 52.1038 26.0287C52.1038 25.3672 52.2459 24.7884 52.53 24.2923C52.8141 23.7962 53.1978 23.4103 53.6812 23.1347C54.1646 22.8591 54.7031 22.7213 55.2968 22.7213C55.8989 22.7213 56.4396 22.8591 56.9187 23.1347C57.3979 23.4103 57.7795 23.7962 58.0636 24.2923C58.3477 24.7884 58.4898 25.3672 58.4898 26.0287C58.4898 26.6902 58.3477 27.269 58.0636 27.7651C57.7795 28.2613 57.3958 28.6471 56.9124 28.9227ZM55.2841 28.1785C54.9618 28.1785 54.665 28.0979 54.3936 27.9368C54.1222 27.7756 53.9017 27.5361 53.7321 27.218C53.5625 26.9 53.4777 26.5035 53.4777 26.0286C53.4777 25.5537 53.5625 25.1572 53.7321 24.8392C53.9017 24.5212 54.1243 24.2816 54.4 24.1205C54.6756 23.9593 54.9745 23.8788 55.2968 23.8788C55.6191 23.8788 55.918 23.9593 56.1936 24.1205C56.4692 24.2816 56.6897 24.5212 56.8551 24.8392C57.0205 25.1572 57.1032 25.5537 57.1032 26.0286C57.1032 26.5035 57.0184 26.9 56.8488 27.218C56.6791 27.5361 56.4565 27.7756 56.1809 27.9368C55.9053 28.0979 55.6063 28.1785 55.2841 28.1785ZM63.5308 31.8231C63.111 32.0309 62.5746 32.1348 61.9216 32.1348C61.0396 32.1348 60.3251 31.9673 59.7781 31.6323C59.2311 31.2973 58.9576 30.7906 58.9576 30.1122C58.9576 29.8493 59.0276 29.5885 59.1675 29.3298C59.3074 29.0712 59.53 28.8273 59.8353 28.5984C59.6572 28.522 59.5025 28.4394 59.371 28.3503C59.2396 28.2613 59.123 28.1701 59.0212 28.0768V27.7715L60.1152 26.652C59.6233 26.228 59.3774 25.6725 59.3774 24.9856C59.3774 24.57 59.477 24.1905 59.6763 23.8471C59.8756 23.5036 60.1661 23.2301 60.5477 23.0266C60.9293 22.823 61.3873 22.7213 61.9216 22.7213C62.2778 22.7213 62.6085 22.7721 62.9138 22.8739H65.2672V23.7644L64.1478 23.828C64.3513 24.1757 64.4531 24.5616 64.4531 24.9856C64.4531 25.4096 64.3534 25.7913 64.1541 26.1305C63.9548 26.4697 63.6665 26.7411 63.2891 26.9446C62.9117 27.1482 62.4559 27.2499 61.9216 27.2499C61.5908 27.2499 61.2855 27.2118 61.0057 27.1354L60.4587 27.6697C60.552 27.7291 60.6664 27.78 60.8021 27.8224C60.9378 27.8648 61.1286 27.9029 61.3746 27.9369C61.6205 27.9708 61.9555 28.0047 62.3795 28.0386C63.2191 28.115 63.8255 28.3164 64.1987 28.6429C64.5718 28.9694 64.7584 29.404 64.7584 29.9468C64.7584 30.3199 64.6587 30.674 64.4594 31.009C64.2601 31.344 63.9506 31.6154 63.5308 31.8231ZM61.9216 26.1941C61.523 26.1941 61.2029 26.0903 60.9612 25.8825C60.7195 25.6747 60.5986 25.38 60.5986 24.9984C60.5986 24.6083 60.7195 24.3114 60.9612 24.1079C61.2029 23.9044 61.523 23.8026 61.9216 23.8026C62.3117 23.8026 62.6276 23.9044 62.8693 24.1079C63.111 24.3114 63.2319 24.6083 63.2319 24.9984C63.2319 25.38 63.111 25.6747 62.8693 25.8825C62.6276 26.0903 62.3117 26.1941 61.9216 26.1941ZM60.7131 30.8055C61.0354 30.9878 61.4382 31.079 61.9216 31.079C62.388 31.079 62.7654 30.9794 63.0538 30.7801C63.3421 30.5808 63.4863 30.3157 63.4863 29.985C63.4863 29.7391 63.3888 29.5292 63.1937 29.3553C62.9986 29.1814 62.6297 29.0733 62.087 29.0309C61.6799 29.0055 61.3195 28.9673 61.0057 28.9164C60.7089 29.0776 60.5053 29.2514 60.3951 29.438C60.2848 29.6246 60.2297 29.8069 60.2297 29.985C60.2297 30.3497 60.3908 30.6232 60.7131 30.8055ZM73.791 28.7383C73.2864 29.1369 72.661 29.3362 71.9147 29.3362C71.2956 29.3362 70.7465 29.1984 70.2673 28.9227C69.7882 28.6471 69.4129 28.2634 69.1415 27.7715C68.8701 27.2796 68.7344 26.7072 68.7344 26.0542C68.7344 25.3927 68.868 24.8117 69.1352 24.3114C69.4023 23.811 69.7754 23.4209 70.2546 23.141C70.7338 22.8612 71.2914 22.7213 71.9274 22.7213C72.5465 22.7213 73.085 22.8591 73.543 23.1347C74.0009 23.4103 74.3571 23.7771 74.6116 24.2351C74.866 24.693 74.9932 25.1976 74.9932 25.7489C74.9932 25.8337 74.9911 25.9248 74.9868 26.0224C74.9826 26.1199 74.9762 26.228 74.9677 26.3467H70.0574C70.0998 26.9573 70.3012 27.4217 70.6617 27.7397C71.0221 28.0577 71.4398 28.2167 71.9147 28.2167C72.2963 28.2167 72.6165 28.1298 72.8751 27.956C73.1338 27.7821 73.3267 27.5468 73.4539 27.2499H74.8024C74.6328 27.8436 74.2956 28.3397 73.791 28.7383ZM73.6448 25.4308H70.0829C70.1592 24.8965 70.3712 24.4958 70.7189 24.2287C71.0666 23.9616 71.4652 23.828 71.9147 23.828C72.3981 23.828 72.8009 23.9722 73.1232 24.2605C73.4455 24.5488 73.6193 24.939 73.6448 25.4308ZM80.4321 25.5963V29.1836H79.0837V20.2789H82.2003C82.8958 20.2789 83.4724 20.3955 83.9304 20.6287C84.3884 20.8619 84.7297 21.1799 84.9544 21.5828C85.1792 21.9856 85.2916 22.4415 85.2916 22.9503C85.2916 23.4337 85.1834 23.8768 84.9672 24.2796C84.7509 24.6825 84.4138 25.0026 83.9558 25.2401C83.4979 25.4775 82.9127 25.5963 82.2003 25.5963H80.4321ZM82.1367 24.4895H80.4321V21.3856H82.1367C82.7728 21.3856 83.2286 21.5234 83.5043 21.799C83.7799 22.0747 83.9177 22.4584 83.9177 22.9503C83.9177 23.4252 83.7799 23.8005 83.5043 24.0761C83.2286 24.3517 82.7728 24.4895 82.1367 24.4895ZM87.6421 20.0244V29.1835H86.2937V20.0244H87.6421ZM91.2011 29.3362C91.7524 29.3362 92.1976 29.2175 92.5368 28.98C92.8761 28.7425 93.1347 28.4499 93.3128 28.1022L93.4273 29.1835H94.5977V25.3036C94.5977 24.5064 94.356 23.8767 93.8726 23.4145C93.3892 22.9523 92.7065 22.7213 91.8245 22.7213C91.3326 22.7213 90.881 22.8082 90.4697 22.982C90.0584 23.1559 89.7191 23.4061 89.452 23.7326C89.1849 24.0591 89.0301 24.4513 88.9877 24.9093H90.3361C90.3955 24.5531 90.563 24.2838 90.8386 24.1015C91.1142 23.9191 91.4386 23.828 91.8118 23.828C92.2358 23.828 92.5814 23.9509 92.8485 24.1969C93.1157 24.4428 93.2492 24.8117 93.2492 25.3036V25.4181H91.5955C90.7135 25.4181 90.035 25.5962 89.5601 25.9524C89.0852 26.3086 88.8478 26.792 88.8478 27.4026C88.8478 27.7503 88.9326 28.0704 89.1022 28.363C89.2718 28.6556 89.5304 28.8909 89.8782 29.069C90.2259 29.2471 90.6669 29.3362 91.2011 29.3362ZM90.5842 27.994C90.8004 28.1594 91.0951 28.2421 91.4683 28.2421C91.833 28.2421 92.1404 28.1552 92.3906 27.9813C92.6408 27.8074 92.8358 27.5764 92.9757 27.288C93.1157 26.9997 93.2026 26.6816 93.2365 26.3339H91.7354C91.2012 26.3339 90.8216 26.4272 90.5969 26.6138C90.3722 26.8004 90.2598 27.0336 90.2598 27.3134C90.2598 27.6018 90.3679 27.8287 90.5842 27.994ZM97.8514 31.9822L101.922 22.874H100.497L98.4747 27.5426L96.5412 22.874H95.0782L97.5716 28.662H97.9405L96.4267 31.9822H97.8514Z" fill="white"/>
<g clip-path="url(#clip0_547_1266)">
<path fill-rule="evenodd" clip-rule="evenodd" d="M13.3409 11.3133L20.4117 18.7184L13.3749 26.188C13.1695 26.0514 13.0594 25.755 13.0576 25.372C13.054 24.6381 12.998 12.9884 12.9938 12.1143C12.9918 11.6951 13.1372 11.4393 13.3409 11.3133ZM22.7435 16.2433L14.1454 11.3234C14.0535 11.2707 13.9492 11.2387 13.8453 11.2244L20.7043 18.4078L22.7435 16.2433ZM23.1255 20.9436L20.9986 18.7162L23.1234 16.4608L26.0495 18.1348C26.7703 18.5471 26.4016 19.0628 26.0495 19.2651L23.1255 20.9436ZM13.9577 26.1903C14.0177 26.1667 14.0803 26.1365 14.1452 26.0993L22.7451 21.1621L20.7062 19.0268L13.9577 26.1903Z" fill="white"/>
</g>
<defs>
<clipPath id="clip0_547_1266">
<rect width="17.9591" height="17.9591" fill="white" transform="translate(10.7489 9.72778)"/>
</clipPath>
</defs>
</svg>
