<svg width="48" height="47" viewBox="0 0 48 47" fill="none" xmlns="http://www.w3.org/2000/svg">
<mask id="mask0_902_23124" style="mask-type:alpha" maskUnits="userSpaceOnUse" x="0" y="0" width="48" height="47">
<rect x="0.795105" y="0.197266" width="46.789" height="46.789" rx="11.492" fill="white"/>
</mask>
<g mask="url(#mask0_902_23124)">
<rect x="0.795105" y="0.197266" width="46.789" height="46.789" fill="#EAEDFD"/>
<path opacity="0.4" d="M16.0087 24.75C15.3379 24.75 14.7949 25.3011 14.7949 25.9819L14.4603 31.9328C14.4603 32.8004 15.1539 33.5028 16.0087 33.5028C16.8636 33.5028 17.5556 32.8004 17.5556 31.9328L17.2225 25.9819C17.2225 25.3011 16.6795 24.75 16.0087 24.75Z" fill="#1D38E4"/>
<path d="M17.6656 12.7698C17.6656 12.7698 17.3173 12.4117 17.1013 12.2558C16.788 12.0149 16.4016 11.8945 16.0168 11.8945C15.5848 11.8945 15.1832 12.0304 14.8562 12.2866C14.7969 12.3468 14.5444 12.5738 14.336 12.7852C13.0279 14.0217 10.8878 17.2496 10.2337 18.94C10.1303 19.1962 9.90666 19.8446 9.89297 20.1919C9.89297 20.5222 9.96599 20.8402 10.1151 21.1413C10.3234 21.5179 10.6505 21.8205 11.0368 21.9857C11.3045 22.0922 12.1061 22.2574 12.1213 22.2574C12.999 22.4241 14.4258 22.5136 16.0016 22.5136C17.5029 22.5136 18.8703 22.4241 19.7617 22.2882C19.7769 22.2728 20.7716 22.1076 21.1139 21.9255C21.7375 21.5936 22.1254 20.9452 22.1254 20.2521V20.1919C22.1102 19.7396 21.7223 18.7887 21.7086 18.7887C21.0546 17.1894 19.0179 14.0372 17.6656 12.7698Z" fill="#1D38E4"/>
<path opacity="0.4" d="M29.7714 22.4346C30.4422 22.4346 30.9852 21.8835 30.9852 21.2027L31.3183 15.2516C31.3183 14.384 30.6262 13.6816 29.7714 13.6816C28.9166 13.6816 28.223 14.384 28.223 15.2516L28.5576 21.2027C28.5576 21.8835 29.1006 22.4346 29.7714 22.4346Z" fill="#1D38E4"/>
<path d="M35.6648 26.0423C35.4564 25.6656 35.1294 25.3646 34.743 25.1979C34.4753 25.0914 33.6722 24.9262 33.6585 24.9262C32.7808 24.7595 31.3541 24.6699 29.7783 24.6699C28.277 24.6699 26.9095 24.7595 26.0182 24.8953C26.003 24.9107 25.0082 25.0775 24.666 25.2581C24.0408 25.59 23.6544 26.2384 23.6544 26.933V26.9932C23.6697 27.4455 24.056 28.3949 24.0712 28.3949C24.7253 29.9942 26.7605 33.1481 28.1142 34.4139C28.1142 34.4139 28.4625 34.7721 28.6785 34.9265C28.9904 35.1688 29.3767 35.2892 29.7646 35.2892C30.195 35.2892 30.5951 35.1534 30.9236 34.8971C30.9829 34.8369 31.2354 34.61 31.4438 34.4C32.7504 33.162 34.8921 29.934 35.5446 28.2452C35.6496 27.9889 35.8732 27.339 35.8869 26.9932C35.8869 26.6613 35.8139 26.3433 35.6648 26.0423Z" fill="#1D38E4"/>
</g>
</svg>
