<svg width="195" height="49" viewBox="0 0 195 49" fill="none" xmlns="http://www.w3.org/2000/svg">
<path d="M74.0384 39.0456H66.5538L58.8858 27.6169C58.739 27.3967 58.5067 26.9137 58.1887 26.1676H58.097V39.0456H52.1716V12.7394H58.097V25.177H58.1887C58.3354 24.8346 58.58 24.3454 58.9225 23.7095L66.1869 12.7394H73.2496L64.0773 25.2871L74.0384 39.0456Z" fill="white"/>
<path d="M84.9535 39.5042C81.8227 39.5042 79.3584 38.6298 77.5606 36.8809C75.7751 35.1198 74.8823 32.735 74.8823 29.7265C74.8823 26.6201 75.8118 24.1925 77.6707 22.4437C79.5296 20.6826 82.0428 19.8021 85.2103 19.8021C88.3289 19.8021 90.7748 20.6826 92.5482 22.4437C94.3215 24.1925 95.2081 26.5101 95.2081 29.3963C95.2081 32.5149 94.2909 34.9792 92.4564 36.7892C90.6342 38.5992 88.1332 39.5042 84.9535 39.5042ZM85.1002 24.2415C83.7305 24.2415 82.6665 24.7123 81.9083 25.654C81.15 26.5957 80.7709 27.9287 80.7709 29.6531C80.7709 33.2609 82.2262 35.0648 85.1369 35.0648C87.9131 35.0648 89.3012 33.212 89.3012 29.5064C89.3012 25.9964 87.9009 24.2415 85.1002 24.2415Z" fill="white"/>
<path d="M113.204 38.3668C111.896 39.1251 110.006 39.5042 107.536 39.5042C104.649 39.5042 102.314 38.6298 100.528 36.8809C98.7425 35.1321 97.8498 32.8757 97.8498 30.1117C97.8498 26.9198 98.8037 24.4066 100.712 22.5721C102.632 20.7254 105.194 19.8021 108.398 19.8021C110.612 19.8021 112.214 20.0956 113.204 20.6826V25.599C111.993 24.694 110.642 24.2415 109.15 24.2415C107.487 24.2415 106.166 24.7306 105.188 25.709C104.221 26.6752 103.738 28.0143 103.738 29.7265C103.738 31.3897 104.203 32.6983 105.133 33.6523C106.062 34.5939 107.34 35.0648 108.967 35.0648C110.41 35.0648 111.822 34.6123 113.204 33.7073V38.3668Z" fill="white"/>
<path d="M135.053 39.0456H129.274V28.369C129.274 25.6173 128.271 24.2415 126.266 24.2415C125.238 24.2415 124.407 24.6267 123.771 25.3972C123.135 26.1676 122.817 27.146 122.817 28.3323V39.0456H117.02V11.2351H122.817V23.0491H122.89C124.309 20.8844 126.235 19.8021 128.669 19.8021C132.925 19.8021 135.053 22.3703 135.053 27.5068V39.0456Z" fill="white"/>
<path d="M157.506 39.0456H151.728V36.1838H151.636C150.205 38.3974 148.291 39.5042 145.894 39.5042C141.541 39.5042 139.364 36.8687 139.364 31.5977V20.2607H145.142V31.084C145.142 33.7379 146.194 35.0648 148.297 35.0648C149.337 35.0648 150.169 34.704 150.792 33.9825C151.416 33.2487 151.728 32.2581 151.728 31.0106V20.2607H157.506V39.0456Z" fill="white"/>
<path d="M174.659 25.4889C173.962 25.1098 173.148 24.9202 172.219 24.9202C170.959 24.9202 169.975 25.3849 169.265 26.3144C168.556 27.2316 168.201 28.4852 168.201 30.0751V39.0456H162.404V20.2607H168.201V23.7462H168.275C169.192 21.2024 170.843 19.9305 173.228 19.9305C173.839 19.9305 174.316 20.0039 174.659 20.1506V25.4889Z" fill="white"/>
<path d="M194.251 31.3041H181.997C182.192 34.0314 183.911 35.395 187.151 35.395C189.218 35.395 191.034 34.9058 192.6 33.9274V38.11C190.863 39.0395 188.607 39.5042 185.831 39.5042C182.798 39.5042 180.443 38.6665 178.768 36.991C177.092 35.3033 176.255 32.9552 176.255 29.9466C176.255 26.8281 177.16 24.3576 178.97 22.5354C180.78 20.7132 183.005 19.8021 185.647 19.8021C188.387 19.8021 190.502 20.6153 191.994 22.2419C193.499 23.8685 194.251 26.0759 194.251 28.8643V31.3041ZM188.876 27.7453C188.876 25.0547 187.787 23.7095 185.61 23.7095C184.681 23.7095 183.874 24.0947 183.189 24.8652C182.516 25.6357 182.107 26.5957 181.96 27.7453H188.876Z" fill="white"/>
<path d="M42.6588 0H6.73976C3.01749 0 0 3.26383 0 7.28999V41.208C0 45.2342 3.01749 48.498 6.73976 48.498H42.6588C46.3811 48.498 49.3986 45.2342 49.3986 41.208V7.28999C49.3986 3.26383 46.3811 0 42.6588 0Z" fill="white"/>
<path d="M38.5881 41.2623H28.9068L18.9984 26.4771C17.4156 24.1693 17.9444 23.4545 19.0474 21.43L28.4289 7.23615H37.5674L25.7065 23.4632L38.5881 41.2623Z" fill="#1D38E4"/>
<path d="M27.0726 41.2623H17.3909L7.48293 26.4771C5.89966 24.1692 6.42892 23.4545 7.53145 21.43L16.913 7.23613H26.0515L9.55679 23.8197L27.0726 41.2623Z" fill="#1D38E4"/>
</svg>
