<svg width="132" height="33" viewBox="0 0 132 33" fill="none" xmlns="http://www.w3.org/2000/svg">
<path d="M50.3116 26.5328H45.2256L40.0149 18.7666C39.9152 18.617 39.7573 18.2887 39.5412 17.7818H39.4789V26.5328H35.4524V8.65684H39.4789V17.1086H39.5412C39.6409 16.876 39.8071 16.5435 40.0398 16.1114L44.9763 8.65684H49.7756L43.5427 17.1834L50.3116 26.5328Z" fill="#1D38E4"/>
<path d="M57.7288 26.8444C55.6013 26.8444 53.9267 26.2502 52.7051 25.0618C51.4917 23.8651 50.8851 22.2446 50.8851 20.2002C50.8851 18.0893 51.5167 16.4397 52.7799 15.2512C54.0431 14.0545 55.7509 13.4562 57.9033 13.4562C60.0225 13.4562 61.6846 14.0545 62.8896 15.2512C64.0947 16.4397 64.6972 18.0145 64.6972 19.9758C64.6972 22.095 64.0739 23.7695 62.8273 24.9995C61.589 26.2295 59.8895 26.8444 57.7288 26.8444ZM57.8285 16.4729C56.8977 16.4729 56.1747 16.7928 55.6595 17.4328C55.1442 18.0727 54.8866 18.9785 54.8866 20.1503C54.8866 22.6019 55.8755 23.8277 57.8534 23.8277C59.7399 23.8277 60.6832 22.5687 60.6832 20.0506C60.6832 17.6655 59.7316 16.4729 57.8285 16.4729Z" fill="#1D38E4"/>
<path d="M76.9261 26.0716C76.0369 26.5868 74.7529 26.8444 73.0742 26.8444C71.1129 26.8444 69.5256 26.2502 68.3122 25.0618C67.0989 23.8734 66.4922 22.3401 66.4922 20.462C66.4922 18.2929 67.1405 16.5851 68.4369 15.3385C69.7417 14.0836 71.4827 13.4562 73.6601 13.4562C75.1643 13.4562 76.2529 13.6556 76.9261 14.0545V17.3954C76.1034 16.7804 75.185 16.4729 74.1712 16.4729C73.0409 16.4729 72.1434 16.8053 71.4786 17.4702C70.822 18.1267 70.4938 19.0367 70.4938 20.2002C70.4938 21.3304 70.8096 22.2196 71.4412 22.8678C72.0728 23.5078 72.9412 23.8277 74.0465 23.8277C75.0272 23.8277 75.987 23.5202 76.9261 22.9052V26.0716Z" fill="#1D38E4"/>
<path d="M91.7729 26.5328H87.8461V19.2777C87.8461 17.4078 87.1647 16.4729 85.8018 16.4729C85.1037 16.4729 84.5386 16.7347 84.1064 17.2582C83.6743 17.7818 83.4582 18.4466 83.4582 19.2528V26.5328H79.519V7.63465H83.4582V15.6626H83.508C84.4721 14.1917 85.781 13.4562 87.4348 13.4562C90.3268 13.4562 91.7729 15.2014 91.7729 18.6918V26.5328Z" fill="#1D38E4"/>
<path d="M107.031 26.5328H103.104V24.5881H103.042C102.07 26.0923 100.769 26.8444 99.1401 26.8444C96.1816 26.8444 94.7023 25.0535 94.7023 21.4717V13.7678H98.6291V21.1226C98.6291 22.926 99.3438 23.8277 100.773 23.8277C101.48 23.8277 102.045 23.5826 102.469 23.0922C102.892 22.5936 103.104 21.9204 103.104 21.0728V13.7678H107.031V26.5328Z" fill="#1D38E4"/>
<path d="M118.687 17.3206C118.213 17.0629 117.66 16.9341 117.029 16.9341C116.173 16.9341 115.504 17.2499 115.022 17.8815C114.54 18.5048 114.299 19.3566 114.299 20.437V26.5328H110.359V13.7678H114.299V16.1363H114.348C114.972 14.4077 116.094 13.5434 117.714 13.5434C118.13 13.5434 118.454 13.5933 118.687 13.693V17.3206Z" fill="#1D38E4"/>
<path d="M132 21.2722H123.673C123.806 23.1255 124.973 24.0521 127.176 24.0521C128.58 24.0521 129.814 23.7197 130.878 23.0548V25.897C129.698 26.5286 128.165 26.8444 126.278 26.8444C124.217 26.8444 122.617 26.2752 121.479 25.1366C120.34 23.9898 119.771 22.3941 119.771 20.3498C119.771 18.2306 120.386 16.5518 121.616 15.3136C122.846 14.0753 124.358 13.4562 126.154 13.4562C128.015 13.4562 129.453 14.0088 130.467 15.1141C131.489 16.2194 132 17.7195 132 19.6143V21.2722ZM128.348 18.8539C128.348 17.0255 127.608 16.1114 126.129 16.1114C125.497 16.1114 124.949 16.3732 124.483 16.8967C124.026 17.4203 123.748 18.0727 123.648 18.8539H128.348Z" fill="#1D38E4"/>
<path d="M28.9881 0H4.57989C2.05049 0 0 2.21789 0 4.95379V28.0022C0 30.7381 2.05049 32.956 4.57989 32.956H28.9881C31.5175 32.956 33.568 30.7381 33.568 28.0022V4.95379C33.568 2.21789 31.5175 0 28.9881 0Z" fill="#1D38E4"/>
<path d="M26.2219 28.0391H19.6431L12.9101 17.9921C11.8345 16.4238 12.1939 15.9382 12.9433 14.5624L19.3184 4.91721H25.5283L17.4685 15.944L26.2219 28.0391Z" fill="#FEFEFE"/>
<path d="M18.3967 28.0391H11.8177L5.0849 17.9921C4.00902 16.4238 4.36867 15.9381 5.11787 14.5624L11.493 4.9172H17.7029L6.49416 16.1863L18.3967 28.0391Z" fill="#FEFEFE"/>
</svg>
